<?xml version="1.0" standalone="no"?>
<!DOCTYPE svg PUBLIC "-//W3C//DTD SVG 20010904//EN"
 "http://www.w3.org/TR/2001/REC-SVG-20010904/DTD/svg10.dtd">
<svg version="1.0" xmlns="http://www.w3.org/2000/svg"
 width="512.000000pt" height="512.000000pt" viewBox="0 0 512.000000 512.000000"
 preserveAspectRatio="xMidYMid meet">

<g transform="translate(0.000000,512.000000) scale(0.100000,-0.100000)"
fill="#000000" stroke="none">
<path d="M2361 4884 c-397 -67 -755 -334 -940 -702 -144 -286 -173 -622 -80
-913 33 -104 124 -278 196 -374 77 -103 243 -271 326 -330 31 -22 57 -43 57
-46 0 -3 -47 -17 -104 -32 -749 -189 -1344 -789 -1535 -1545 -39 -157 -64
-356 -59 -486 3 -97 5 -107 33 -147 17 -23 50 -53 74 -66 l44 -23 2187 0 2187
0 44 23 c24 13 58 43 74 66 28 39 30 50 33 143 7 179 -36 441 -105 648 -74
222 -220 488 -372 675 -185 229 -465 448 -737 576 -106 50 -328 128 -426 150
-32 7 -58 15 -58 18 0 3 26 24 57 46 82 58 268 247 335 341 242 339 303 721
178 1105 -104 318 -354 606 -658 758 -221 111 -511 155 -751 115z m417 -210
c431 -89 766 -441 837 -879 78 -476 -181 -952 -623 -1146 -133 -58 -228 -80
-378 -86 -211 -9 -387 29 -554 118 -489 264 -700 851 -486 1357 150 357 474
602 861 652 90 11 246 4 343 -16z m190 -2335 c579 -63 1084 -368 1407 -850
129 -192 239 -459 284 -689 18 -91 41 -289 41 -357 l0 -23 -2140 0 -2140 0 0
28 c0 15 5 77 10 137 58 630 407 1184 947 1501 227 134 492 222 763 253 109
12 714 13 828 0z"/>
</g>
</svg>
